<?xml version="1.0" encoding="UTF-8" standalone="no"?>
<svg
   version="1.1"
   width="1000"
   height="1000"
   viewBox="0 0 1000 1000"
   id="svg6696"
   xmlns="http://www.w3.org/2000/svg"
   xmlns:svg="http://www.w3.org/2000/svg">
  <defs
     id="defs6700" />
  <g
     transform="matrix(8.0171868,0,0,8.0171868,-804.78375,-1989.7225)"
     id="g6694">
    <svg
       viewBox="0 0 396 247"
       data-background-color="#ffffff"
       preserveAspectRatio="xMidYMid"
       height="623"
       width="1000"
       version="1.1"
       id="svg6692"
       style="stroke-width:0.999976;stroke-dasharray:none">
      <defs
         id="defs6625" />
      <g
         id="tight-bounds"
         transform="translate(0.24,-0.1)"
         style="stroke-width:0.999976;stroke-dasharray:none">
        <svg
           viewBox="0 0 395.52 247.2"
           height="247.2"
           width="395.51999"
           version="1.1"
           id="svg6687"
           style="stroke-width:0.999976;stroke-dasharray:none">
          <g
             id="g6629"
             style="stroke-width:0.999976;stroke-dasharray:none">
            <svg
               version="1.1"
               id="svg6627"
               width="100%"
               height="100%"
               style="stroke-width:0.999976;stroke-dasharray:none" />
          </g>
          <g
             id="g6685"
             style="stroke-width:0.999976;stroke-dasharray:none">
            <svg
               viewBox="0 0 395.52 247.2"
               height="247.2"
               width="395.51999"
               version="1.1"
               id="svg6683"
               style="stroke-width:0.999976;stroke-dasharray:none">
              <g
                 transform="translate(39.552,100.39375)"
                 id="g6677"
                 style="stroke-width:0.999976;stroke-dasharray:none">
                <svg
                   viewBox="0 0 316.416 46.412508"
                   height="46.412506"
                   width="316.41599"
                   version="1.1"
                   id="svg6675"
                   style="stroke-width:0.999976;stroke-dasharray:none">
                  <g
                     id="g6673"
                     style="stroke-width:0.999976;stroke-dasharray:none">
                    <svg
                       viewBox="0 0 316.416 46.412508"
                       height="46.412506"
                       width="316.41599"
                       version="1.1"
                       id="svg6671"
                       style="stroke-width:0.999976;stroke-dasharray:none">
                      <g
                         id="g6669"
                         style="stroke-width:0.999976;stroke-dasharray:none">
                        <svg
                           viewBox="0 0 381.52808 55.963272"
                           height="46.412506"
                           width="316.41599"
                           version="1.1"
                           id="svg6667"
                           style="stroke-width:1.20575;stroke-dasharray:none">
                          <g
                             transform="translate(65.112075,7.734432)"
                             id="g6646"
                             style="stroke-width:1.20575;stroke-dasharray:none">
                            <svg
                               viewBox="0 0 316.416 40.494408"
                               height="40.494408"
                               width="316.41599"
                               version="1.1"
                               id="svg6644"
                               style="stroke-width:1.20575;stroke-dasharray:none">
                              <g
                                 id="g6642"
                                 style="stroke-width:1.20575;stroke-dasharray:none">
                                <svg
                                   viewBox="0 0 316.416 40.494408"
                                   height="40.494408"
                                   width="316.41599"
                                   version="1.1"
                                   id="svg6640"
                                   style="stroke-width:1.20575;stroke-dasharray:none">
                                <g
                                   id="g6638"
                                   style="stroke-width:1.20575;stroke-dasharray:none">
                                <svg
                                   viewBox="0 0 316.416 40.494408"
                                   height="40.494408"
                                   width="316.41599"
                                   version="1.1"
                                   id="svg6636"
                                   style="stroke-width:1.20575;stroke-dasharray:none">
                                <g
                                   id="g6634"
                                   style="stroke-width:1.20575;stroke-dasharray:none">
                                <svg
                                   width="316.41599"
                                   viewBox="3.25 -25.6 203.53 26.050001"
                                   height="40.494408"
                                   data-palette-color="#f0cb3f"
                                   version="1.1"
                                   id="svg6632"
                                   style="stroke-width:0.775658;stroke-dasharray:none" />
                                </g>
                                </svg>
                                </g>
                                </svg>
                              </g>
                            </svg>
                          </g>
                          <g
                             id="g6665"
                             style="stroke-width:1.20575;stroke-dasharray:none">
                            <svg
                               viewBox="0 0 59.202969 55.963272"
                               height="55.963272"
                               width="59.202969"
                               version="1.1"
                               id="svg6663"
                               style="stroke-width:1.20575;stroke-dasharray:none">
                              <g
                                 id="g6661"
                                 style="stroke-width:1.20575;stroke-dasharray:none">
                                <svg
                                   version="1.1"
                                   x="0"
                                   y="0"
                                   viewBox="201 128.5 444.66699 420.33398"
                                   enable-background="new 0 0 841.89 595.28"
                                   xml:space="preserve"
                                   height="55.963272"
                                   width="59.202969"
                                   class="icon-icon-0"
                                   data-fill-palette-color="accent"
                                   id="icon-0"
                                   style="stroke-width:9.05626;stroke-dasharray:none"><g
                                   fill="#f0cb3f"
                                   data-fill-palette-color="accent"
                                   id="g6658"
                                   style="stroke-width:9.05626;stroke-dasharray:none"><g
                                   fill="#f0cb3f"
                                   data-fill-palette-color="accent"
                                   id="g6652"
                                   style="stroke-width:9.05626;stroke-dasharray:none"><path
                                   d="m 424.56273,548.833 c -7.5,-0.5 -9.833,-9.667 -9.833,-9.667 -3.834,-13 -15.167,-22.166 -15.167,-22.166 -20.334,-18.833 -102.667,-69.5 -102.667,-69.5 -25.5,-11.5 -80,-28.5 -80,-28.5 -12,-6 -15,-20 -15,-20 5,0.5 26.5,-8.5 26.5,-8.5 l -26.5,-31 26,-9.5 -26,-23.5 29,-17.5 c -19,-145.5 109,-180.5 109,-180.5 0,0 -9.5,138 8,153.5 0,0 35.834,-27.5 76.667,-29"
                                   fill="#f0cb3f"
                                   data-fill-palette-color="accent"
                                   id="path6648"
                                   style="fill:#eab308;fill-opacity:1;stroke-width:9.05626;stroke-dasharray:none" /><path
                                   d="m 422.10427,548.834 c 7.5,-0.5 9.834,-9.668 9.834,-9.668 3.832,-13 15.166,-22.166 15.166,-22.166 20.334,-18.832 102.667,-69.5 102.667,-69.5 25.5,-11.5 80,-28.5 80,-28.5 12,-6 15,-20 15,-20 -5,0.5 -26.5,-8.5 -26.5,-8.5 l 26.5,-31 -26,-9.5 26,-23.5 -29,-17.5 c 19,-145.5 -109,-180.5 -109,-180.5 0,0 9.5,138 -8,153.5 0,0 -35.834,-27.5 -76.667,-29"
                                   fill="#f0cb3f"
                                   data-fill-palette-color="accent"
                                   id="path6650"
                                   style="fill:#eab308;fill-opacity:1;stroke-width:9.05626;stroke-dasharray:none" /></g><path
                                   fill="#f0cb3f"
                                   d="m 526.875,349 c -0.504,-0.579 -1.638,-0.396 -2.262,-0.281 -3.223,0.598 -6.087,3.236 -8.14,5.617 -3.188,3.697 -5.497,8.293 -8.43,12.216 -2.324,3.109 -5.007,5.961 -7.836,8.615 -6.988,6.558 -16.157,10.835 -25.915,10.476 -6.823,-0.251 -13.843,-3.613 -19.418,-7.393 0,0 14.125,-32.125 61,-32 10e-4,0 7.626,-1.125 11.001,2.75 z"
                                   data-fill-palette-color="accent"
                                   id="path6654"
                                   style="fill:#eab308;fill-opacity:1;stroke-width:9.05626;stroke-dasharray:none" /><path
                                   fill="#f0cb3f"
                                   d="m 331.347,349.455 c 0.504,-0.579 1.638,-0.396 2.262,-0.281 3.223,0.598 6.087,3.236 8.14,5.617 3.188,3.697 5.497,8.293 8.43,12.216 2.324,3.109 5.007,5.961 7.836,8.615 6.988,6.558 16.157,10.835 25.915,10.476 6.823,-0.251 13.843,-3.613 19.418,-7.393 0,0 -14.125,-32.125 -61,-32 -0.001,0 -7.626,-1.125 -11.001,2.75 z"
                                   data-fill-palette-color="accent"
                                   id="path6656"
                                   style="fill:#eab308;fill-opacity:1;stroke-width:9.05626;stroke-dasharray:none" /></g></svg>
                              </g>
                            </svg>
                          </g>
                        </svg>
                      </g>
                    </svg>
                  </g>
                </svg>
              </g>
              <g
                 id="g6681"
                 style="stroke-width:0.999976;stroke-dasharray:none" />
            </svg>
          </g>
        </svg>
        <rect
           width="395.51999"
           height="247.2"
           fill="none"
           stroke="none"
           visibility="hidden"
           id="rect6689"
           x="0"
           y="0"
           style="stroke-width:0.999976;stroke-dasharray:none" />
      </g>
    </svg>
  </g>
</svg>
